#Comment line ignore any data following # character 
#Hierarchical Translation and Rotation (.htr) file 
[Header]	
#Header keywords are followed by a single value 
FileType HTR		#Single word string
DataType HTRS		#Translation followed by rotation and scale data
FileVersion 1		#integer
NumSegments 84		#integer
NumFrames 2		#integer
DataFrameRate 30		#integer, data frame rate in this file
EulerRotationOrder ZYX
CalibrationUnits mm
RotationUnits Degrees
GlobalAxisofGravity Y
BoneLengthAxis Y
ScaleFactor 1.00
[SegmentNames&Hierarchy]
#CHILD	PARENT
MASTER GLOBAL
root MASTER
chest root
L_mid_tent01 root
R_mid_tent01 root
spine01 root
Bip01_Neck chest
L_humerus chest
R_humerus chest
weapon_bone chest
Bip01_Head Bip01_Neck
eye_left_bone Bip01_Head
eye_right_bone Bip01_Head
L_forearm L_humerus
L_front_hand L_forearm
L_weapon_bone L_forearm
L_front_hand01_01 L_front_hand
L_front_hand02_01 L_front_hand
L_front_hand03_01 L_front_hand
L_front_hand01_02 L_front_hand01_01
L_front_hand02_02 L_front_hand02_01
L_front_hand03_02 L_front_hand03_01
R_forearm R_humerus
R_front_hand R_forearm
R_weapon_bone R_forearm
R_front_hand01_01 R_front_hand
R_front_hand02_01 R_front_hand
R_front_hand03_01 R_front_hand
R_front_hand01_02 R_front_hand01_01
R_front_hand02_02 R_front_hand02_01
R_front_hand03_02 R_front_hand03_01
null_rope01_connect L_mid_tent01
Rope1_Seg01 null_rope01_connect
Rope1_Seg02 Rope1_Seg01
Rope1_Seg03 Rope1_Seg02
Rope1_Seg04 Rope1_Seg03
Rope1_Seg05 Rope1_Seg04
Rope1_Seg06 Rope1_Seg05
Rope1_Seg07 Rope1_Seg06
Rope1_Seg09 Rope1_Seg07
L_mid_hand01 Rope1_Seg09
L_mid_hand02 Rope1_Seg09
L_mid_hand03 Rope1_Seg09
null_rope02_connect R_mid_tent01
Rope2_Seg01 null_rope02_connect
Rope2_Seg02 Rope2_Seg01
Rope2_Seg03 Rope2_Seg02
Rope2_Seg04 Rope2_Seg03
Rope2_Seg05 Rope2_Seg04
Rope2_Seg06 Rope2_Seg05
Rope2_Seg07 Rope2_Seg06
Rope2_Seg09 Rope2_Seg07
R_mid_hand01 Rope2_Seg09
R_mid_hand02 Rope2_Seg09
R_mid_hand03 Rope2_Seg09
spine02 spine01
spine03 spine02
pelvis spine03
null_rope03_connect pelvis
null_rope04_connect pelvis
Rope3_Seg01 null_rope03_connect
Rope3_Seg02 Rope3_Seg01
Rope3_Seg03 Rope3_Seg02
Rope3_Seg04 Rope3_Seg03
Rope3_Seg05 Rope3_Seg04
Rope3_Seg06 Rope3_Seg05
Rope3_Seg07 Rope3_Seg06
Rope3_Seg08 Rope3_Seg07
Rope3_Seg09 Rope3_Seg08
R_rear_hand01 Rope3_Seg09
R_rear_hand02 Rope3_Seg09
R_rear_hand03 Rope3_Seg09
Rope4_Seg01 null_rope04_connect
Rope4_Seg02 Rope4_Seg01
Rope4_Seg03 Rope4_Seg02
Rope4_Seg04 Rope4_Seg03
Rope4_Seg05 Rope4_Seg04
Rope4_Seg06 Rope4_Seg05
Rope4_Seg07 Rope4_Seg06
Rope4_Seg08 Rope4_Seg07
Rope4_Seg09 Rope4_Seg08
L_rear_hand01 Rope4_Seg09
L_rear_hand02 Rope4_Seg09
L_rear_hand03 Rope4_Seg09
[BasePosition]
#SegmentName Tx, Ty, Tz, Rx, Ry, Rz, BoneLength
MASTER 0.000000 0.000000 0.000000 -90.000000 0.000000 0.000000 10.000000 
root 0.000000 0.000000 0.000000 0.000000 0.000000 0.000000 10.000000 
chest 0.000000 0.000000 0.000000 0.000000 0.000000 0.000000 10.000000 
L_mid_tent01 0.000000 0.000000 0.000000 0.000000 0.000000 0.000000 10.000000 
R_mid_tent01 0.000000 0.000000 0.000000 0.000000 0.000000 0.000000 10.000000 
spine01 0.000000 0.000000 0.000000 0.000000 0.000000 0.000000 10.000000 
Bip01_Neck 0.000000 0.000000 0.000000 0.000000 0.000000 0.000000 10.000000 
L_humerus 0.000000 0.000000 0.000000 0.000000 0.000000 0.000000 10.000000 
R_humerus 0.000000 0.000000 0.000000 0.000000 0.000000 0.000000 10.000000 
weapon_bone 0.000000 0.000000 0.000000 0.000000 0.000000 0.000000 10.000000 
Bip01_Head 0.000000 0.000000 0.000000 0.000000 0.000000 0.000000 10.000000 
eye_left_bone 0.000000 0.000000 0.000000 0.000000 0.000000 0.000000 10.000000 
eye_right_bone 0.000000 0.000000 0.000000 0.000000 0.000000 0.000000 10.000000 
L_forearm 0.000000 0.000000 0.000000 0.000000 0.000000 0.000000 10.000000 
L_front_hand 0.000000 0.000000 0.000000 0.000000 0.000000 0.000000 10.000000 
L_weapon_bone 0.000000 0.000000 0.000000 0.000000 0.000000 0.000000 10.000000 
L_front_hand01_01 0.000000 0.000000 0.000000 0.000000 0.000000 0.000000 10.000000 
L_front_hand02_01 0.000000 0.000000 0.000000 0.000000 0.000000 0.000000 10.000000 
L_front_hand03_01 0.000000 0.000000 0.000000 0.000000 0.000000 0.000000 10.000000 
L_front_hand01_02 0.000000 0.000000 0.000000 0.000000 0.000000 0.000000 10.000000 
L_front_hand02_02 0.000000 0.000000 0.000000 0.000000 0.000000 0.000000 10.000000 
L_front_hand03_02 0.000000 0.000000 0.000000 0.000000 0.000000 0.000000 10.000000 
R_forearm 0.000000 0.000000 0.000000 0.000000 0.000000 0.000000 10.000000 
R_front_hand 0.000000 0.000000 0.000000 0.000000 0.000000 0.000000 10.000000 
R_weapon_bone 0.000000 0.000000 0.000000 0.000000 0.000000 0.000000 10.000000 
R_front_hand01_01 0.000000 0.000000 0.000000 0.000000 0.000000 0.000000 10.000000 
R_front_hand02_01 0.000000 0.000000 0.000000 0.000000 0.000000 0.000000 10.000000 
R_front_hand03_01 0.000000 0.000000 0.000000 0.000000 0.000000 0.000000 10.000000 
R_front_hand01_02 0.000000 0.000000 0.000000 0.000000 0.000000 0.000000 10.000000 
R_front_hand02_02 0.000000 0.000000 0.000000 0.000000 0.000000 0.000000 10.000000 
R_front_hand03_02 0.000000 0.000000 0.000000 0.000000 0.000000 0.000000 10.000000 
null_rope01_connect 0.000000 0.000000 0.000000 0.000000 0.000000 0.000000 10.000000 
Rope1_Seg01 0.000000 0.000000 0.000000 0.000000 0.000000 0.000000 10.000000 
Rope1_Seg02 0.000000 0.000000 0.000000 0.000000 0.000000 0.000000 10.000000 
Rope1_Seg03 0.000000 0.000000 0.000000 0.000000 0.000000 0.000000 10.000000 
Rope1_Seg04 0.000000 0.000000 0.000000 0.000000 0.000000 0.000000 10.000000 
Rope1_Seg05 0.000000 0.000000 0.000000 0.000000 0.000000 0.000000 10.000000 
Rope1_Seg06 0.000000 0.000000 0.000000 0.000000 0.000000 0.000000 10.000000 
Rope1_Seg07 0.000000 0.000000 0.000000 0.000000 0.000000 0.000000 10.000000 
Rope1_Seg09 0.000000 0.000000 0.000000 0.000000 0.000000 0.000000 10.000000 
L_mid_hand01 0.000000 0.000000 0.000000 0.000000 0.000000 0.000000 10.000000 
L_mid_hand02 0.000000 0.000000 0.000000 0.000000 0.000000 0.000000 10.000000 
L_mid_hand03 0.000000 0.000000 0.000000 0.000000 0.000000 0.000000 10.000000 
null_rope02_connect 0.000000 0.000000 0.000000 0.000000 0.000000 0.000000 10.000000 
Rope2_Seg01 0.000000 0.000000 0.000000 0.000000 0.000000 0.000000 10.000000 
Rope2_Seg02 0.000000 0.000000 0.000000 0.000000 0.000000 0.000000 10.000000 
Rope2_Seg03 0.000000 0.000000 0.000000 0.000000 0.000000 0.000000 10.000000 
Rope2_Seg04 0.000000 0.000000 0.000000 0.000000 0.000000 0.000000 10.000000 
Rope2_Seg05 0.000000 0.000000 0.000000 0.000000 0.000000 0.000000 10.000000 
Rope2_Seg06 0.000000 0.000000 0.000000 0.000000 0.000000 0.000000 10.000000 
Rope2_Seg07 0.000000 0.000000 0.000000 0.000000 0.000000 0.000000 10.000000 
Rope2_Seg09 0.000000 0.000000 0.000000 0.000000 0.000000 0.000000 10.000000 
R_mid_hand01 0.000000 0.000000 0.000000 0.000000 0.000000 0.000000 10.000000 
R_mid_hand02 0.000000 0.000000 0.000000 0.000000 0.000000 0.000000 10.000000 
R_mid_hand03 0.000000 0.000000 0.000000 0.000000 0.000000 0.000000 10.000000 
spine02 0.000000 0.000000 0.000000 0.000000 0.000000 0.000000 10.000000 
spine03 0.000000 0.000000 0.000000 0.000000 0.000000 0.000000 10.000000 
pelvis 0.000000 0.000000 0.000000 0.000000 0.000000 0.000000 10.000000 
null_rope03_connect 0.000000 0.000000 0.000000 0.000000 0.000000 0.000000 10.000000 
null_rope04_connect 0.000000 0.000000 0.000000 0.000000 0.000000 0.000000 10.000000 
Rope3_Seg01 0.000000 0.000000 0.000000 0.000000 0.000000 0.000000 10.000000 
Rope3_Seg02 0.000000 0.000000 0.000000 0.000000 0.000000 0.000000 10.000000 
Rope3_Seg03 0.000000 0.000000 0.000000 0.000000 0.000000 0.000000 10.000000 
Rope3_Seg04 0.000000 0.000000 0.000000 0.000000 0.000000 0.000000 10.000000 
Rope3_Seg05 0.000000 0.000000 0.000000 0.000000 0.000000 0.000000 10.000000 
Rope3_Seg06 0.000000 0.000000 0.000000 0.000000 0.000000 0.000000 10.000000 
Rope3_Seg07 0.000000 0.000000 0.000000 0.000000 0.000000 0.000000 10.000000 
Rope3_Seg08 0.000000 0.000000 0.000000 0.000000 0.000000 0.000000 10.000000 
Rope3_Seg09 0.000000 0.000000 0.000000 0.000000 0.000000 0.000000 10.000000 
R_rear_hand01 0.000000 0.000000 0.000000 0.000000 0.000000 0.000000 10.000000 
R_rear_hand02 0.000000 0.000000 0.000000 0.000000 0.000000 0.000000 10.000000 
R_rear_hand03 0.000000 0.000000 0.000000 0.000000 0.000000 0.000000 10.000000 
Rope4_Seg01 0.000000 0.000000 0.000000 0.000000 0.000000 0.000000 10.000000 
Rope4_Seg02 0.000000 0.000000 0.000000 0.000000 0.000000 0.000000 10.000000 
Rope4_Seg03 0.000000 0.000000 0.000000 0.000000 0.000000 0.000000 10.000000 
Rope4_Seg04 0.000000 0.000000 0.000000 0.000000 0.000000 0.000000 10.000000 
Rope4_Seg05 0.000000 0.000000 0.000000 0.000000 0.000000 0.000000 10.000000 
Rope4_Seg06 0.000000 0.000000 0.000000 0.000000 0.000000 0.000000 10.000000 
Rope4_Seg07 0.000000 0.000000 0.000000 0.000000 0.000000 0.000000 10.000000 
Rope4_Seg08 0.000000 0.000000 0.000000 0.000000 0.000000 0.000000 10.000000 
Rope4_Seg09 0.000000 0.000000 0.000000 0.000000 0.000000 0.000000 10.000000 
L_rear_hand01 0.000000 0.000000 0.000000 0.000000 0.000000 0.000000 10.000000 
L_rear_hand02 0.000000 0.000000 0.000000 0.000000 0.000000 0.000000 10.000000 
L_rear_hand03 0.000000 0.000000 0.000000 0.000000 0.000000 0.000000 10.000000 
#Beginning of Data. Separated by tabs
#Fr	Tx	Ty	Tz	Rx	Ry	Rz	SF
[MASTER]
7 670.583252 893.447937 466.008179 0.001660 0.001660 0.001660 1210.410889
8 790.821838 991.090820 525.882996 0.001660 0.001660 0.001660 1372.666504
[root]
7 10.480423 -78.588791 1357.035034 -80.587105 -16.331778 -97.385376 1359.349121
8 23.469772 -78.814850 1308.661987 -75.499657 -16.607517 -99.120621 1311.243164
[chest]
7 -84.512650 -34.090519 0.000000 0.350062 -11.555254 -173.855179 91.129311
8 -84.512650 -34.090519 0.000000 1.317344 -11.877004 -173.840103 91.129311
[L_mid_tent01]
7 27.299086 22.179115 -249.918701 -0.053957 9.925663 70.102882 252.381683
8 27.299084 22.179117 -249.918701 -0.478570 12.791238 69.451340 252.381683
[R_mid_tent01]
7 23.228794 24.509907 226.238495 168.416351 -21.976427 69.712975 228.744751
8 23.228794 24.509907 226.238495 170.161682 -23.758741 65.390091 228.744751
[spine01]
7 -0.361383 -0.195265 0.000000 0.001924 0.001345 20.098991 0.410763
8 -0.361383 -0.195265 0.000000 0.001920 0.001350 19.758518 0.410763
[Bip01_Neck]
7 165.484543 71.581718 0.000119 176.643677 -1.657967 43.431911 180.302734
8 165.484543 71.581718 0.000119 176.643677 -1.657967 43.431915 180.302734
[L_humerus]
7 -13.983130 -135.272980 -120.471481 -1.067133 75.187256 87.773232 181.680161
8 -13.983130 -135.272980 -120.471481 1.101648 77.405289 89.676445 181.680161
[R_humerus]
7 -13.983309 -135.273102 125.287651 49.657051 -82.823235 45.821354 184.909012
8 -13.983309 -135.273102 125.287651 78.641663 -85.589050 16.784189 184.909012
[weapon_bone]
7 235.964890 -300.705902 0.000000 0.000000 -89.951546 -128.212341 382.234833
8 235.964890 -300.705902 0.000000 0.000000 -89.951546 -128.212341 382.234833
[Bip01_Head]
7 213.495483 185.573196 13.612289 12.165083 3.918741 -43.860859 283.201385
8 213.553391 185.411774 15.697250 13.335878 2.604432 -43.872452 283.247223
[eye_left_bone]
7 -24.626970 125.451866 -64.772606 0.000000 -90.000000 -99.840431 143.318359
8 -24.626970 125.451866 -64.772606 0.000000 -90.000000 -99.840431 143.318359
[eye_right_bone]
7 -24.626970 125.451866 64.327362 0.000000 -89.965736 80.156380 143.117676
8 -24.626970 125.451866 64.327362 0.000000 -89.965736 80.156380 143.117676
[L_forearm]
7 322.776093 0.000000 -0.000119 0.000329 -0.002324 -106.101456 322.776093
8 322.776093 0.000000 -0.000119 0.000312 -0.002326 -105.269913 322.776093
[L_front_hand]
7 241.149185 -0.042021 -3.300071 174.854721 -2.873600 -21.696640 241.171753
8 241.149185 -0.042021 -3.300071 173.069092 -3.071233 -20.609827 241.171753
[L_weapon_bone]
7 156.183838 0.000000 0.000000 0.000014 0.000007 0.000001 156.183838
8 156.183838 0.000000 0.000000 0.000014 0.000007 0.000001 156.183838
[L_front_hand01_01]
7 86.095154 20.947098 -0.655860 -0.322964 -0.505554 70.186295 88.609184
8 86.095154 20.947098 -0.655860 -0.304872 -0.514302 68.276085 88.609184
[L_front_hand02_01]
7 86.935165 -11.437475 24.513514 146.960190 -57.330456 -52.657890 91.046425
8 86.935165 -11.437475 24.513514 144.546585 -56.255684 -49.772915 91.046425
[L_front_hand03_01]
7 86.637497 -14.123976 -20.424902 -146.989075 55.546074 -54.434807 90.126129
8 86.637497 -14.123976 -20.424902 -144.732681 54.475929 -51.681915 90.126129
[L_front_hand01_02]
7 71.020905 -0.000179 0.000030 0.000316 -0.002326 -105.473587 71.020905
8 71.020905 -0.000179 0.000030 0.000316 -0.002326 -105.453369 71.020905
[L_front_hand02_02]
7 71.020927 -0.000119 0.000060 0.000316 -0.002326 -105.473587 71.020927
8 71.020927 -0.000119 0.000060 0.000316 -0.002326 -105.453369 71.020927
[L_front_hand03_02]
7 71.020905 -0.000060 0.000060 0.000316 -0.002326 -105.473587 71.020905
8 71.020905 -0.000060 0.000060 0.000316 -0.002326 -105.453369 71.020905
[R_forearm]
7 322.776428 -0.000060 0.000030 0.201708 0.066369 -108.750206 322.776428
8 322.776428 -0.000060 0.000030 0.201647 0.066554 -108.855232 322.776428
[R_front_hand]
7 238.847015 -0.006795 2.210259 -2.635298 -10.645461 -26.312506 238.857239
8 238.847015 -0.006795 2.210259 -2.635298 -10.645461 -26.312506 238.857239
[R_weapon_bone]
7 155.664093 0.002503 -0.000030 0.003487 0.001180 -90.988930 155.664078
8 155.664093 0.002503 -0.000030 0.003487 0.001180 -90.988930 155.664078
[R_front_hand01_01]
7 87.624611 14.231146 22.918642 -146.976166 -57.336147 52.779388 91.683487
8 87.624611 14.231146 22.918642 -144.302139 -56.138660 49.586018 91.683487
[R_front_hand02_01]
7 89.356956 14.367283 -19.491137 147.400665 55.711205 55.166904 92.579636
8 89.356956 14.367283 -19.491137 144.866989 54.526863 52.081070 92.579636
[R_front_hand03_01]
7 87.286232 -22.307278 -0.143439 0.123256 -0.437630 -70.429710 90.091743
8 87.286232 -22.307278 -0.143439 0.104166 -0.441299 -68.306503 90.091743
[R_front_hand01_02]
7 71.020905 0.000060 0.000119 0.002323 -0.000334 106.381714 71.020905
8 71.020905 0.000060 0.000119 0.002323 -0.000334 106.381714 71.020905
[R_front_hand02_02]
7 71.020844 -0.000030 -0.000119 0.002323 -0.000334 106.381714 71.020836
8 71.020844 -0.000030 -0.000119 0.002323 -0.000334 106.381714 71.020836
[R_front_hand03_02]
7 71.020905 0.000000 0.000030 0.002323 -0.000334 106.381714 71.020905
8 71.020905 0.000000 0.000030 0.002323 -0.000334 106.381714 71.020905
[null_rope01_connect]
7 328.732483 0.000000 -0.000238 -84.696526 -79.398712 120.711174 328.732483
8 328.732483 0.000000 -0.000238 -74.511986 -77.251816 111.376129 328.732483
[Rope1_Seg01]
7 -0.000002 -0.000054 0.000143 -11.958399 75.317245 174.650650 0.000153
8 -0.000003 -0.000057 0.000142 -19.789078 75.017365 166.126312 0.000153
[Rope1_Seg02]
7 139.999863 -0.000179 0.000000 1.702842 4.676209 -12.433434 139.999863
8 139.999863 -0.000179 0.000000 0.737681 6.378868 -11.229654 139.999863
[Rope1_Seg03]
7 139.999924 0.000060 -0.000060 4.874738 3.635946 -14.059384 139.999924
8 139.999924 0.000060 -0.000060 2.873919 5.876712 -12.628194 139.999924
[Rope1_Seg04]
7 139.999924 -0.000060 -0.000119 12.303590 -1.727311 -13.737829 139.999924
8 139.999924 -0.000060 -0.000119 10.852116 0.356661 -12.788688 139.999924
[Rope1_Seg05]
7 139.999832 0.000119 -0.000060 3.072020 6.359866 -10.242677 139.999832
8 139.999832 0.000119 -0.000060 0.474910 7.674169 -9.459766 139.999832
[Rope1_Seg06]
7 139.999954 0.000119 -0.000060 -24.017256 14.858824 -10.240062 139.999954
8 139.999954 0.000119 -0.000060 -55.311783 17.718369 -8.852668 139.999954
[Rope1_Seg07]
7 139.999985 0.000060 0.000000 -75.446777 10.692001 -3.203068 139.999985
8 139.999985 0.000060 0.000000 -66.144844 11.894964 5.733660 139.999985
[Rope1_Seg09]
7 121.602913 0.000119 -0.000089 -89.793175 -1.359789 0.847147 121.602913
8 121.602913 0.000119 -0.000089 -89.793175 -1.359789 0.847147 121.602913
[L_mid_hand01]
7 103.859421 1.038730 8.195221 112.987701 -50.601227 -18.681456 104.187431
8 103.859421 1.038730 8.195221 111.216125 -46.770248 -16.325296 104.187431
[L_mid_hand02]
7 105.572853 -4.139662 -10.864139 -153.018723 36.866009 -49.082401 106.211075
8 105.572853 -4.139662 -10.864139 -150.384232 34.904903 -44.592545 106.211075
[L_mid_hand03]
7 104.641464 17.579376 -3.913581 -11.755013 14.733717 54.618225 106.179977
8 104.641464 17.579376 -3.913581 -12.781254 13.855400 50.452682 106.179977
[null_rope02_connect]
7 328.732849 0.000179 -0.000119 -135.546402 63.947430 2.765832 328.732849
8 328.732849 0.000179 -0.000119 -140.931763 59.545910 -8.688115 328.732849
[Rope2_Seg01]
7 0.000054 0.000162 0.000000 52.497425 19.247511 -22.705217 0.000170
8 0.000053 0.000163 0.000000 70.605087 2.109116 -19.426350 0.000172
[Rope2_Seg02]
7 139.999741 -0.000060 -0.000119 -3.432080 16.546762 -10.776077 139.999756
8 139.999741 -0.000060 -0.000119 -13.098794 14.451599 -19.601624 139.999756
[Rope2_Seg03]
7 140.000107 0.000030 0.000000 -3.160152 15.258108 -12.428780 140.000107
8 140.000107 0.000030 0.000000 -7.290907 14.354171 -18.856804 140.000107
[Rope2_Seg04]
7 139.999802 0.000000 -0.000060 -1.703349 20.338245 -9.484589 139.999802
8 139.999802 0.000000 -0.000060 -1.686993 17.183674 -10.054760 139.999802
[Rope2_Seg05]
7 139.999985 -0.000060 0.000119 -5.886566 28.882481 -6.036828 139.999985
8 139.999985 -0.000060 0.000119 -3.879940 27.763319 -5.158555 139.999985
[Rope2_Seg06]
7 139.999893 -0.000030 -0.000119 -4.822867 12.611986 -1.766701 139.999893
8 139.999893 -0.000030 -0.000119 -4.006535 14.954843 -2.366195 139.999893
[Rope2_Seg07]
7 139.999893 0.000060 -0.000060 -3.490758 6.041440 -0.474937 139.999893
8 139.999893 0.000060 -0.000060 -2.811832 7.236851 -0.914793 139.999893
[Rope2_Seg09]
7 121.338966 0.000089 -0.000060 33.793236 -1.359788 -0.847141 121.338966
8 121.338966 0.000089 -0.000060 33.793236 -1.359788 -0.847141 121.338966
[R_mid_hand01]
7 104.680779 11.144459 -10.335981 -25.192726 41.648338 57.439434 105.778534
8 104.680779 11.144459 -10.335981 -27.387484 40.402237 54.098232 105.778534
[R_mid_hand02]
7 104.070427 2.443552 8.231699 60.800945 -59.436069 26.232430 104.424065
8 104.070427 2.443552 8.231699 62.946606 -56.952812 23.709986 104.424065
[R_mid_hand03]
7 106.028137 -11.221827 -5.996406 -174.361145 14.799507 -66.152634 106.788818
8 106.028137 -11.221827 -5.996406 -173.630432 14.503002 -63.260223 106.788818
[spine02]
7 129.756927 0.001550 0.000119 0.429536 -4.037336 -13.909061 129.756927
8 129.756927 0.001550 0.000119 0.437844 -4.036397 -14.040254 129.756927
[spine03]
7 78.614075 0.081482 -4.899012 1.937824 3.810491 17.084372 78.766609
8 78.614075 0.081482 -4.899012 1.944307 3.807188 17.174612 78.766609
[pelvis]
7 169.435242 0.051022 0.000000 -0.060065 -0.180359 13.833814 169.435257
8 169.435242 0.051022 0.000000 -0.059912 -0.180410 13.736678 169.435257
[null_rope03_connect]
7 -1.257226 -2.466202 137.391083 -23.472620 -78.857086 93.356361 137.418976
8 -1.257226 -2.466202 137.391083 -16.706944 -74.250511 87.889206 137.418976
[null_rope04_connect]
7 -1.259640 -2.480268 -137.844437 -23.472620 -78.857086 93.356361 137.872513
8 -1.259640 -2.480268 -137.844437 -16.706944 -74.250511 87.889206 137.872513
[Rope3_Seg01]
7 -0.000020 -0.000054 0.000000 14.876750 3.488256 -97.877495 0.000058
8 -0.000020 -0.000057 0.000000 16.532658 -1.162132 -96.237701 0.000060
[Rope3_Seg02]
7 139.999924 -0.000119 0.000060 1.872519 -6.879380 24.061428 139.999924
8 139.999924 -0.000119 0.000060 1.226949 -9.447893 28.309834 139.999924
[Rope3_Seg03]
7 139.999924 -0.000119 0.000119 -3.016481 -7.550006 21.126228 139.999924
8 139.999924 -0.000119 0.000119 -5.873590 -9.792970 26.182411 139.999924
[Rope3_Seg04]
7 139.999924 0.000119 0.000000 -4.384343 -1.877390 18.056269 139.999924
8 139.999924 0.000119 0.000000 -6.428058 -3.125302 18.721563 139.999924
[Rope3_Seg05]
7 139.999924 -0.000238 0.000060 -3.008358 1.885579 12.376316 139.999924
8 139.999924 -0.000238 0.000060 -6.120215 -0.053021 14.495217 139.999924
[Rope3_Seg06]
7 139.999893 -0.000119 -0.000060 -2.131296 0.127586 5.700058 139.999893
8 139.999893 -0.000119 -0.000060 -4.855381 -1.410530 7.160079 139.999893
[Rope3_Seg07]
7 139.999771 0.000060 -0.000119 -1.474235 -0.211541 3.427597 139.999771
8 139.999771 0.000060 -0.000119 -3.558943 -1.344333 4.329756 139.999771
[Rope3_Seg08]
7 139.999985 -0.000060 0.000000 -0.783050 -0.177313 2.040652 139.999985
8 139.999985 -0.000060 0.000000 -2.166671 -0.959887 2.528013 139.999985
[Rope3_Seg09]
7 90.185997 -0.000179 -0.000060 89.793228 -1.359877 -0.847183 90.185997
8 90.185997 -0.000179 -0.000060 89.793228 -1.359877 -0.847183 90.185997
[R_rear_hand01]
7 103.366196 -6.073594 -10.757982 -172.199188 23.472191 -60.427750 104.101845
8 103.366196 -6.073594 -10.757982 -170.781250 22.977592 -56.830051 104.101845
[R_rear_hand02]
7 100.509819 12.039542 -7.992327 -21.205954 33.223911 57.720810 101.543350
8 100.509819 12.039542 -7.992327 -23.185038 31.960989 54.046932 101.543350
[R_rear_hand03]
7 101.539970 5.215704 5.435467 78.624985 -59.850563 13.735100 101.819031
8 101.539970 5.215704 5.435467 79.639069 -56.567928 12.539778 101.819031
[Rope4_Seg01]
7 0.000010 0.000038 -0.000114 -101.581078 9.332922 -131.159378 0.000121
8 0.000010 0.000038 -0.000114 -100.919281 8.240549 -132.828430 0.000121
[Rope4_Seg02]
7 139.999985 0.000060 0.000119 -1.769587 2.959923 4.652833 139.999985
8 139.999985 0.000060 0.000119 -2.230173 4.256592 5.816872 139.999985
[Rope4_Seg03]
7 139.999924 0.000000 -0.000238 -2.776224 3.390759 5.742357 139.999924
8 139.999924 0.000000 -0.000238 -3.834377 4.795347 7.186115 139.999924
[Rope4_Seg04]
7 139.999985 0.000000 0.000119 -3.301390 1.828066 4.943462 139.999985
8 139.999985 0.000000 0.000119 -5.104437 3.351932 6.616592 139.999985
[Rope4_Seg05]
7 139.999802 -0.000060 -0.000119 -6.872355 4.077424 8.764273 139.999802
8 139.999802 -0.000060 -0.000119 -9.088161 3.867384 8.738222 139.999802
[Rope4_Seg06]
7 139.999924 0.000000 0.000060 -22.269453 7.912421 17.521027 139.999924
8 139.999924 0.000000 0.000060 -30.690256 5.936355 17.844032 139.999924
[Rope4_Seg07]
7 139.999802 0.000000 0.000000 -30.040462 0.380616 14.569367 139.999802
8 139.999802 0.000000 0.000000 -40.855301 -3.862845 18.095064 139.999802
[Rope4_Seg08]
7 139.999924 0.000000 0.000119 -17.616673 -3.743350 6.663683 139.999924
8 139.999924 0.000000 0.000119 -15.446396 -7.433889 5.608654 139.999924
[Rope4_Seg09]
7 90.185791 0.000060 0.000060 -135.617828 2.228885 0.850567 90.185791
8 90.185791 0.000060 0.000060 -135.617828 2.228885 0.850567 90.185791
[L_rear_hand01]
7 101.696655 -8.392275 -7.654577 -30.967802 -24.555588 142.276382 102.329041
8 101.696655 -8.392275 -7.654577 -31.684452 -23.583008 144.025742 102.329041
[L_rear_hand02]
7 102.726799 -1.568258 5.773216 82.497200 40.606583 171.238342 102.900848
8 102.726799 -1.568258 5.773216 82.701553 38.753956 171.553619 102.900848
[L_rear_hand03]
7 104.552910 9.721220 -10.420293 -164.603775 -19.511108 -140.104065 105.519653
8 104.552910 9.721220 -10.420293 -163.975403 -19.004421 -142.009338 105.519653
